<?xml version="1.0" standalone="no"?>
<!DOCTYPE svg PUBLIC "-//W3C//DTD SVG 20010904//EN"
 "http://www.w3.org/TR/2001/REC-SVG-20010904/DTD/svg10.dtd">
<svg version="1.0" xmlns="http://www.w3.org/2000/svg"
 width="1737.000000pt" height="563.000000pt" viewBox="0 0 1737.000000 563.000000"
 preserveAspectRatio="xMidYMid meet">

<g transform="translate(0.000000,563.000000) scale(0.100000,-0.100000)"
fill="#000000" stroke="none">
<path d="M15578 5279 c-42 -5 -94 -13 -115 -18 l-39 -11 -17 -122 c-9 -68 -28
-204 -42 -303 -52 -368 -149 -979 -191 -1200 -115 -603 -209 -976 -293 -1168
-11 -26 -19 -49 -18 -52 1 -2 -26 -21 -60 -42 -325 -197 -471 -597 -350 -955
67 -195 219 -367 412 -465 169 -85 407 -104 595 -47 103 32 156 58 237 117
219 162 336 397 334 672 -1 175 -51 328 -151 461 l-39 52 72 143 c86 171 184
383 227 489 10 25 41 101 70 170 243 582 489 1249 634 1719 77 250 76 231 22
278 -191 168 -889 320 -1288 282z m652 -93 c0 -3 -4 -8 -10 -11 -5 -3 -10 -1
-10 4 0 6 5 11 10 11 6 0 10 -2 10 -4z m65 -10 c19 -8 25 -15 17 -20 -7 -4
-12 -2 -12 4 0 7 -7 10 -15 6 -8 -3 -15 -1 -15 4 0 5 -8 11 -17 13 -13 3 -13
5 -3 5 8 1 28 -5 45 -12z m118 -26 c7 0 7 -4 -1 -12 -10 -10 -15 -10 -21 1 -5
8 -14 10 -21 6 -9 -6 -11 -4 -6 4 5 7 15 10 23 7 8 -3 20 -6 26 -6z m32 -20
c-3 -5 -11 -10 -16 -10 -6 0 -7 5 -4 10 3 6 11 10 16 10 6 0 7 -4 4 -10z
m-495 -45 c14 -2 45 -6 70 -9 25 -4 58 -9 73 -12 16 -3 38 -7 50 -9 12 -2 45
-8 72 -14 28 -6 64 -14 80 -17 17 -3 93 -26 170 -50 141 -44 182 -67 154 -85
-11 -7 -11 -9 2 -9 13 0 15 -7 9 -37 -25 -133 -256 -771 -555 -1538 -242 -620
-362 -905 -383 -905 -16 0 -410 103 -484 126 l-47 15 15 35 c76 181 249 1121
398 2159 36 250 53 335 65 333 20 -2 54 4 44 9 -7 2 -13 9 -13 14 0 9 218 4
280 -6z m710 -19 c0 -3 -4 -8 -10 -11 -5 -3 -10 -1 -10 4 0 6 5 11 10 11 6 0
10 -2 10 -4z m25 -16 c-3 -5 -11 -10 -16 -10 -6 0 -7 5 -4 10 3 6 11 10 16 10
6 0 7 -4 4 -10z m-1332 -2770 c103 -24 215 -83 289 -153 35 -34 42 -59 9 -36
-9 7 -2 -2 14 -18 17 -16 43 -53 59 -83 16 -30 37 -68 46 -85 46 -83 59 -288
26 -400 -56 -189 -220 -355 -403 -408 -141 -42 -302 -26 -442 41 -95 46 -212
158 -258 247 -119 227 -89 490 77 678 48 55 144 131 186 148 16 6 38 15 49 20
11 4 34 12 50 17 17 5 29 14 28 19 -1 5 3 10 10 11 23 2 92 14 94 16 7 6 120
-4 166 -14z"/>
<path d="M15205 2571 c-7 -13 14 -23 110 -50 44 -12 112 -32 150 -43 39 -12
79 -22 90 -24 11 -1 41 -8 68 -15 41 -12 49 -11 63 3 15 15 14 17 -22 27 -22
6 -45 11 -53 11 -8 0 -44 9 -80 19 -233 69 -316 87 -326 72z"/>
<path d="M15497 2199 c7 -7 15 -10 18 -7 3 3 -2 9 -12 12 -14 6 -15 5 -6 -5z"/>
<path d="M15605 2130 c10 -11 20 -20 23 -20 3 0 -3 9 -13 20 -10 11 -20 20
-23 20 -3 0 3 -9 13 -20z"/>
<path d="M14654 1600 c6 -79 5 -75 39 -164 25 -67 156 -226 186 -226 6 0 11
-4 11 -8 0 -10 88 -55 150 -77 98 -35 249 -37 348 -5 117 38 227 115 278 195
17 27 13 25 -36 -15 -85 -71 -120 -94 -185 -122 -78 -35 -182 -52 -259 -44
-60 6 -216 52 -226 66 -3 4 -14 10 -25 14 -44 14 -195 176 -195 209 0 9 -12
25 -26 36 -25 20 -24 47 2 37 8 -3 11 0 7 10 -3 8 -12 13 -19 10 -18 -7 -30
14 -14 24 9 5 9 9 1 14 -6 4 -11 15 -11 25 0 10 -7 34 -15 52 -16 34 -16 34
-11 -31z"/>
<path d="M1990 5209 c-335 -38 -660 -166 -930 -368 -93 -69 -273 -243 -349
-336 -134 -164 -244 -346 -329 -545 -135 -313 -188 -591 -199 -1035 -6 -256 4
-418 42 -640 98 -579 388 -1057 812 -1343 34 -23 66 -42 71 -42 5 0 46 -21 91
-46 425 -241 980 -322 1496 -219 67 13 150 33 185 44 72 23 76 21 86 -45 3
-22 9 -46 14 -54 9 -15 281 -62 504 -87 213 -24 779 -24 991 0 608 69 1147
230 1571 471 124 70 129 74 143 117 22 71 19 302 -7 422 -60 278 -200 574
-344 733 -28 30 -55 54 -62 54 -7 0 -67 -22 -133 -49 -386 -156 -959 -306
-1319 -346 l-60 -7 -12 68 c-27 159 -28 151 4 158 180 37 415 56 705 56 l227
0 21 88 c74 313 96 610 60 802 -14 75 -57 206 -72 218 -16 13 -145 38 -277 54
-63 7 -228 13 -408 13 -298 0 -303 0 -298 20 2 11 15 84 27 162 l23 142 65 7
c82 9 472 -2 606 -16 235 -25 534 -76 551 -94 6 -6 19 -33 29 -61 36 -99 75
-167 93 -162 9 3 55 17 101 31 149 46 601 129 617 114 3 -4 1 -188 -6 -410
-29 -1013 -29 -1538 0 -1878 23 -272 70 -552 121 -716 l19 -62 63 -11 c276
-51 724 -53 1142 -5 122 13 361 50 396 60 13 4 11 26 -22 170 -160 708 -259
1730 -259 2680 l0 261 58 6 c84 8 793 -10 895 -23 49 -7 90 -10 91 -8 10 11
68 177 90 253 74 267 103 556 75 775 -22 177 -82 347 -153 435 l-35 42 -126
11 c-485 45 -1070 40 -1615 -14 -338 -33 -732 -100 -969 -166 l-114 -31 -16
22 c-15 19 -37 25 -152 41 -298 42 -500 54 -889 54 -561 -1 -1081 -48 -1542
-140 l-127 -26 -63 53 c-323 270 -762 397 -1198 348z m450 -213 c184 -33 427
-123 415 -154 -5 -13 -3 -13 12 -1 15 12 16 12 10 -4 -4 -10 -3 -16 3 -12 5 3
18 -3 29 -14 11 -11 22 -17 25 -14 3 3 8 -2 12 -11 3 -9 10 -13 15 -10 5 3 9
1 9 -4 0 -5 19 -22 42 -37 23 -15 80 -66 126 -114 104 -106 112 -115 112 -129
0 -5 4 -12 9 -14 11 -4 88 -124 96 -149 9 -26 -34 -117 -89 -187 -108 -141
-326 -301 -466 -343 l-40 -12 -83 80 c-182 175 -348 253 -537 253 -261 0 -497
-160 -643 -438 -99 -188 -145 -383 -154 -649 -14 -433 83 -804 277 -1061 69
-91 178 -195 197 -188 7 3 12 0 10 -7 -1 -7 6 -11 15 -11 10 1 16 -2 13 -6 -3
-5 -1 -11 5 -15 5 -3 10 -2 10 3 0 12 41 2 140 -34 61 -22 97 -28 190 -32 130
-5 206 9 323 58 40 16 75 30 80 30 4 0 29 11 56 24 27 14 51 22 55 19 3 -4 20
6 36 22 27 26 30 34 25 70 -3 22 -14 114 -25 205 -26 205 -61 434 -100 653
l-31 168 23 19 c13 11 26 19 31 20 4 0 7 5 7 11 0 8 -6 7 -16 -2 -14 -12 -16
-11 -13 5 10 47 207 86 469 92 214 5 319 -6 328 -35 3 -8 0 -11 -7 -7 -20 13
-12 -5 14 -27 22 -20 27 -38 50 -212 61 -469 102 -939 112 -1292 l6 -231 -34
-21 c-19 -12 -81 -40 -139 -62 -58 -23 -145 -67 -195 -99 -113 -72 -184 -108
-307 -154 -228 -85 -430 -119 -708 -119 -268 0 -464 32 -696 114 -90 31 -324
146 -324 159 0 3 -37 32 -83 62 -314 214 -550 573 -656 998 -126 508 -91 1196
84 1665 40 109 173 375 187 375 4 0 8 6 8 13 0 7 9 23 20 35 11 12 20 25 20
29 0 4 13 23 28 40 15 18 38 47 52 64 46 58 262 269 275 269 7 0 15 7 19 15 3
8 12 15 21 15 8 0 15 7 15 15 0 8 7 15 15 15 8 0 15 5 15 10 0 6 4 10 10 10 5
0 19 8 30 18 11 9 23 16 25 15 3 -2 14 6 25 17 12 12 26 18 32 14 6 -4 8 -3 5
3 -23 36 271 155 491 198 186 37 410 41 582 11z m6105 -116 c61 -6 118 -13
127 -16 23 -7 54 -94 79 -218 44 -217 16 -644 -53 -818 l-10 -28 -558 -2
c-307 -2 -562 -7 -567 -11 -21 -21 -9 -1020 17 -1509 22 -411 60 -813 101
-1088 11 -74 22 -151 24 -170 1 -19 5 -42 8 -50 13 -33 38 -193 33 -206 -3 -8
-2 -14 3 -14 5 0 14 -21 21 -46 16 -56 14 -58 -85 -73 -185 -27 -332 -35 -678
-35 -305 -1 -369 1 -376 13 -14 21 -49 202 -65 331 -33 257 -41 448 -41 975 0
503 7 710 41 1290 8 138 17 311 21 385 5 101 10 138 21 146 22 16 -1 50 -39
58 -18 3 -73 2 -123 -4 -50 -6 -136 -15 -191 -21 -103 -12 -165 -30 -165 -48
0 -15 57 -13 170 4 103 15 348 31 340 22 -3 -3 -78 -13 -167 -21 -89 -9 -210
-23 -269 -31 -59 -8 -111 -15 -115 -15 -4 0 1 26 12 58 33 94 69 296 76 415 7
127 -8 280 -38 394 -14 52 -17 79 -9 87 5 7 7 16 3 20 -4 4 0 4 10 0 10 -3 17
-1 17 5 0 6 -5 11 -12 11 -31 0 16 23 83 41 348 90 891 158 1464 183 150 7
780 -3 890 -14z m-3355 -110 c219 -10 527 -34 583 -46 15 -3 28 -11 29 -17 0
-7 2 -18 2 -25 1 -7 7 -17 14 -21 8 -5 13 -10 12 -12 0 -2 6 -22 16 -44 84
-201 95 -510 29 -772 -14 -53 -26 -98 -28 -100 -2 -2 -58 10 -123 26 -440 110
-1020 164 -1404 131 -63 -5 -142 -12 -175 -15 -44 -4 -55 -2 -43 5 34 21 374
42 573 36 336 -10 809 -73 1072 -142 51 -14 65 -14 78 -4 29 24 18 40 -31 40
-25 0 -55 5 -67 12 -29 15 -110 32 -337 68 -397 63 -741 87 -978 70 -308 -23
-331 -26 -352 -52 -11 -13 -19 -34 -20 -47 0 -24 0 -24 22 -5 l21 19 -6 -30
c-3 -16 -13 -61 -21 -100 -28 -129 -48 -329 -49 -486 -1 -161 4 -189 29 -168
8 6 31 13 51 14 21 2 94 12 163 21 87 13 182 18 315 17 189 0 418 -22 453 -42
16 -10 16 -10 0 -11 -25 0 -22 -14 6 -29 14 -8 26 -26 30 -43 18 -89 -1 -379
-35 -559 l-11 -55 -261 -12 c-271 -12 -385 -25 -572 -67 -60 -14 -121 -28
-135 -31 l-25 -5 25 14 c25 14 61 24 185 51 159 34 362 55 570 57 162 3 195 9
195 36 0 16 -9 18 -72 16 -40 -2 -125 -4 -188 -7 -63 -2 -140 -6 -170 -10
l-55 -7 23 19 c12 11 22 25 22 31 0 6 9 11 21 11 11 0 17 5 14 10 -10 16 -17
12 -63 -29 -33 -31 -54 -41 -90 -46 -112 -14 -188 -28 -204 -36 -10 -5 -37
-11 -61 -13 -24 -2 -53 -8 -64 -14 -11 -6 -23 -9 -26 -6 -16 17 -90 -38 -102
-76 -6 -20 -5 -22 18 -16 l25 6 1 -103 c0 -56 4 -142 10 -192 5 -49 9 -97 10
-105 0 -14 24 -138 36 -187 4 -19 9 -21 28 -14 12 5 88 14 170 21 410 31 906
140 1282 282 111 41 195 59 195 40 0 -6 -8 -8 -19 -5 -10 3 -22 0 -25 -6 -4
-6 1 -11 12 -11 58 0 184 -232 239 -438 22 -81 26 -120 27 -240 1 -139 0 -144
-22 -163 -38 -30 -289 -153 -413 -202 -597 -235 -1403 -320 -2144 -226 -194
24 -227 31 -233 47 -2 6 2 12 8 12 14 0 190 99 190 106 0 3 -5 2 -12 -2 -7 -4
-8 -3 -4 4 4 6 13 9 20 6 8 -3 17 0 22 7 5 8 3 10 -6 4 -9 -5 -11 -4 -6 4 4 6
11 9 15 6 15 -9 333 154 325 167 -4 7 -3 8 4 4 16 -10 54 12 46 27 -4 7 -3 9
1 4 5 -4 19 3 32 15 23 21 23 25 23 229 0 453 -74 1305 -151 1736 l-11 61 -58
26 c-86 39 -200 65 -338 78 l-124 12 7 95 c21 294 33 392 52 413 13 15 14 19
3 14 -8 -4 -7 -1 4 6 10 7 62 58 115 112 53 55 104 106 114 115 9 8 17 19 17
23 0 4 18 35 40 70 40 65 80 165 80 201 0 21 -54 119 -122 219 -43 65 -44 68
-20 68 9 0 24 5 32 11 13 9 13 10 -2 6 -9 -3 -19 0 -22 8 -19 49 771 123 1424
133 52 1 196 -3 320 -8z m-2862 -920 c70 -35 103 -61 182 -139 53 -53 111
-114 127 -136 l31 -40 68 19 c38 10 102 33 142 51 l73 34 -6 -57 c-3 -31 -10
-115 -14 -185 -5 -70 -11 -130 -13 -132 -2 -2 -56 -18 -118 -34 -172 -44 -430
-156 -430 -186 0 -5 16 -93 35 -194 62 -322 135 -788 135 -855 0 -21 -11 -29
-72 -54 -163 -67 -263 -78 -379 -42 -249 76 -429 349 -500 755 -29 168 -32
450 -6 592 53 285 189 510 363 601 82 43 125 52 218 47 69 -3 90 -9 164 -45z
m1382 -2766 c0 -6 -240 -124 -252 -124 -5 0 -8 4 -8 9 0 12 189 104 212 103
10 0 20 3 23 9 7 10 25 13 25 3z m-390 -209 c0 -2 -22 -16 -50 -30 -34 -17
-48 -21 -44 -11 3 8 19 18 35 21 16 4 31 11 34 16 6 9 25 13 25 4z"/>
<path d="M3279 4245 c-51 -74 -205 -224 -284 -277 -73 -49 -190 -108 -214
-108 -7 0 -44 29 -82 64 -97 92 -169 142 -273 192 -113 53 -166 66 -281 66
-196 1 -363 -73 -511 -224 -71 -73 -174 -213 -174 -238 0 -9 -7 -25 -15 -36
-8 -10 -20 -37 -26 -58 -6 -22 -22 -62 -35 -90 -25 -52 -30 -76 -16 -76 5 0
14 19 21 43 17 55 82 185 138 271 115 179 298 313 479 351 232 49 454 -29 686
-244 74 -68 94 -74 166 -41 165 75 377 264 446 398 28 55 12 59 -25 7z"/>
<path d="M3299 3047 c5 -5 19 -7 32 -5 20 3 19 5 -9 9 -20 3 -29 2 -23 -4z"/>
<path d="M2993 3043 c9 -2 23 -2 30 0 6 3 -1 5 -18 5 -16 0 -22 -2 -12 -5z"/>
<path d="M3388 3038 c5 -5 16 -8 23 -6 8 3 3 7 -10 11 -17 4 -21 3 -13 -5z"/>
<path d="M2898 3033 c6 -2 18 -2 25 0 6 3 1 5 -13 5 -14 0 -19 -2 -12 -5z"/>
<path d="M2838 3023 c7 -3 16 -2 19 1 4 3 -2 6 -13 5 -11 0 -14 -3 -6 -6z"/>
<path d="M2720 3000 c-9 -6 -10 -10 -3 -10 6 0 15 5 18 10 8 12 4 12 -15 0z"/>
<path d="M550 2018 c0 -3 14 -41 30 -86 17 -46 30 -94 30 -107 0 -14 4 -25 9
-25 5 0 11 -10 14 -21 6 -22 7 -21 39 7 28 24 31 30 16 32 -10 2 -18 9 -18 16
0 14 255 81 271 71 5 -4 16 -1 24 5 19 16 212 24 245 10 39 -16 173 -39 162
-28 -20 20 -187 58 -258 58 -70 0 -225 -22 -274 -39 -14 -5 -54 -17 -90 -27
-36 -9 -72 -23 -81 -31 -23 -20 -38 -16 -45 12 -3 14 -9 25 -13 25 -3 0 -15
27 -25 61 -11 33 -23 62 -28 65 -4 3 -8 4 -8 2z"/>
<path d="M1168 1903 c6 -2 18 -2 25 0 6 3 1 5 -13 5 -14 0 -19 -2 -12 -5z"/>
<path d="M1060 1880 c-8 -5 -10 -10 -5 -10 6 0 17 5 25 10 8 5 11 10 5 10 -5
0 -17 -5 -25 -10z"/>
<path d="M1350 1865 c-1 -5 -2 -13 -1 -17 0 -5 -3 -8 -8 -8 -5 0 -16 -6 -23
-13 -7 -7 -21 -18 -32 -24 -14 -8 -15 -11 -4 -15 20 -8 80 49 75 70 -3 9 -6
13 -7 7z"/>
<path d="M1246 1845 c-37 -11 -163 -112 -152 -122 3 -3 12 2 21 11 9 9 20 16
24 16 4 0 13 11 19 25 8 18 26 28 69 41 32 9 62 20 66 24 16 14 -8 17 -47 5z"/>
<path d="M1580 1851 c0 -5 12 -12 28 -15 15 -4 36 -9 47 -12 11 -2 4 4 -15 15
-38 22 -60 26 -60 12z"/>
<path d="M938 1843 c6 -2 18 -2 25 0 6 3 1 5 -13 5 -14 0 -19 -2 -12 -5z"/>
<path d="M1375 1830 c3 -5 11 -10 16 -10 6 0 25 -11 42 -24 18 -13 61 -38 97
-55 36 -16 77 -40 92 -52 15 -13 30 -20 34 -17 5 6 -108 88 -121 88 -3 0 -34
18 -67 40 -58 37 -107 53 -93 30z"/>
<path d="M738 1823 c6 -2 18 -2 25 0 6 3 1 5 -13 5 -14 0 -19 -2 -12 -5z"/>
<path d="M835 1810 c-3 -5 -2 -10 4 -10 5 0 13 5 16 10 3 6 2 10 -4 10 -5 0
-13 -4 -16 -10z"/>
<path d="M2673 1793 c-18 -9 -33 -20 -33 -24 0 -5 16 1 35 12 19 12 35 23 35
25 0 5 0 5 -37 -13z"/>
<path d="M666 1751 c-10 -15 12 -61 28 -61 9 0 13 -6 10 -14 -6 -16 43 -106
58 -106 5 0 6 -5 3 -11 -4 -6 1 -19 11 -29 11 -10 33 -36 49 -56 46 -59 127
-148 142 -157 7 -4 18 -5 23 -2 16 10 12 35 -6 35 -9 0 -18 8 -21 19 -2 10
-16 25 -30 32 -13 7 -31 25 -39 40 -7 15 -27 41 -44 58 -18 17 -26 31 -19 31
15 0 -18 33 -43 42 -9 4 -19 20 -23 37 -4 17 -15 36 -26 41 -10 6 -19 15 -19
20 0 16 -34 90 -42 90 -4 0 -9 -4 -12 -9z"/>
<path d="M1881 1736 c10 -9 69 -36 69 -32 0 6 -55 36 -66 36 -4 0 -5 -2 -3 -4z"/>
<path d="M1020 1690 c0 -5 7 -7 15 -4 8 4 15 8 15 10 0 2 -7 4 -15 4 -8 0 -15
-4 -15 -10z"/>
<path d="M2466 1691 c-4 -5 3 -7 14 -4 23 6 26 13 6 13 -8 0 -17 -4 -20 -9z"/>
<path d="M2425 1680 c-16 -7 -17 -9 -3 -9 9 -1 20 4 23 9 7 11 7 11 -20 0z"/>
<path d="M2345 1660 c-16 -7 -17 -9 -3 -9 9 -1 20 4 23 9 7 11 7 11 -20 0z"/>
<path d="M1670 1645 c7 -8 17 -15 22 -15 6 0 5 7 -2 15 -7 8 -17 15 -22 15 -6
0 -5 -7 2 -15z"/>
<path d="M2108 1653 c7 -3 16 -2 19 1 4 3 -2 6 -13 5 -11 0 -14 -3 -6 -6z"/>
<path d="M1118 1643 c6 -2 18 -2 25 0 6 3 1 5 -13 5 -14 0 -19 -2 -12 -5z"/>
<path d="M2198 1643 c17 -2 47 -2 65 0 17 2 3 4 -33 4 -36 0 -50 -2 -32 -4z"/>
<path d="M860 1612 c-59 -35 -29 -41 33 -7 26 15 47 29 47 31 0 12 -40 0 -80
-24z"/>
<path d="M1715 1610 c3 -5 10 -10 16 -10 5 0 9 5 9 10 0 6 -7 10 -16 10 -8 0
-12 -4 -9 -10z"/>
<path d="M1620 1590 c0 -6 7 -10 15 -10 8 0 15 2 15 4 0 2 -7 6 -15 10 -8 3
-15 1 -15 -4z"/>
<path d="M1793 1545 c21 -19 43 -35 49 -35 14 0 -63 69 -77 70 -5 0 7 -16 28
-35z"/>
<path d="M1850 1497 c0 -10 41 -49 46 -45 2 3 -7 15 -21 28 -14 13 -25 20 -25
17z"/>
<path d="M1640 1450 c-9 -6 -10 -10 -3 -10 6 0 15 5 18 10 8 12 4 12 -15 0z"/>
<path d="M1000 1290 c0 -10 88 -81 216 -174 140 -102 447 -223 634 -250 19 -3
67 -11 105 -17 40 -7 169 -12 300 -13 211 0 241 2 365 27 248 50 430 120 621
239 57 36 148 82 201 102 94 36 148 68 148 87 0 16 -20 10 -144 -38 -67 -26
-158 -71 -203 -101 -46 -29 -129 -75 -185 -102 -151 -71 -264 -107 -483 -151
-68 -14 -513 -19 -600 -7 -38 6 -81 11 -95 12 -14 1 -43 7 -65 13 -107 31
-167 44 -184 38 -10 -3 -28 3 -42 13 -13 11 -49 28 -80 40 -81 30 -229 108
-280 148 -162 127 -229 166 -229 134z"/>
<path d="M2005 1290 c3 -5 13 -10 21 -10 8 0 14 5 14 10 0 6 -9 10 -21 10 -11
0 -17 -4 -14 -10z"/>
<path d="M1930 1260 c0 -5 6 -10 14 -10 8 0 18 5 21 10 3 6 -3 10 -14 10 -12
0 -21 -4 -21 -10z"/>
<path d="M2158 1083 c7 -3 16 -2 19 1 4 3 -2 6 -13 5 -11 0 -14 -3 -6 -6z"/>
<path d="M2505 998 c17 -6 46 -22 65 -35 38 -25 50 -28 50 -13 0 14 -95 60
-122 59 -20 0 -19 -2 7 -11z"/>
<path d="M2380 970 c8 -5 23 -7 33 -4 9 3 31 -2 49 -10 17 -9 33 -14 36 -12 2
3 -10 12 -27 20 -33 18 -117 23 -91 6z"/>
<path d="M2200 966 c0 -2 7 -6 15 -10 8 -3 15 -1 15 4 0 6 -7 10 -15 10 -8 0
-15 -2 -15 -4z"/>
<path d="M7687 3861 c-122 -5 -140 -8 -153 -25 -15 -21 -19 -56 -6 -56 4 0 19
8 32 18 23 16 70 17 560 20 528 3 560 5 560 36 0 12 -747 18 -993 7z"/>
<path d="M7310 690 c-8 -5 -12 -12 -9 -15 4 -3 12 1 19 10 14 17 11 19 -10 5z"/>
<path d="M7639 690 c-113 -20 -349 -30 -644 -27 -176 1 -328 6 -337 11 -14 6
-18 4 -18 -12 0 -46 11 -47 394 -47 451 1 711 24 704 63 -4 20 -34 23 -99 12z"/>
<path d="M3718 4673 c7 -3 16 -2 19 1 4 3 -2 6 -13 5 -11 0 -14 -3 -6 -6z"/>
<path d="M3638 4663 c7 -3 16 -2 19 1 4 3 -2 6 -13 5 -11 0 -14 -3 -6 -6z"/>
<path d="M3470 4571 c0 -6 4 -12 9 -16 6 -3 33 -44 61 -90 45 -74 70 -102 70
-77 0 12 -80 155 -97 175 -17 18 -43 23 -43 8z"/>
<path d="M3184 3328 c-12 -19 27 -38 76 -38 125 0 357 -63 408 -110 26 -24 42
-26 42 -4 0 54 -163 126 -340 150 -129 17 -177 18 -186 2z"/>
<path d="M4335 3110 l-30 -8 27 -1 c15 0 30 4 33 9 3 6 5 9 3 9 -2 -1 -16 -5
-33 -9z"/>
<path d="M4478 3113 c39 -2 105 -2 145 0 39 1 7 3 -73 3 -80 0 -112 -2 -72 -3z"/>
<path d="M4773 3103 c9 -2 25 -2 35 0 9 3 1 5 -18 5 -19 0 -27 -2 -17 -5z"/>
<path d="M4238 3093 c6 -2 18 -2 25 0 6 3 1 5 -13 5 -14 0 -19 -2 -12 -5z"/>
<path d="M4878 3093 c6 -2 18 -2 25 0 6 3 1 5 -13 5 -14 0 -19 -2 -12 -5z"/>
<path d="M4105 3080 c-16 -7 -17 -9 -3 -9 9 -1 20 4 23 9 7 11 7 11 -20 0z"/>
<path d="M4158 3083 c6 -2 18 -2 25 0 6 3 1 5 -13 5 -14 0 -19 -2 -12 -5z"/>
<path d="M4958 3083 c7 -3 16 -2 19 1 4 3 -2 6 -13 5 -11 0 -14 -3 -6 -6z"/>
<path d="M5000 2745 l-25 -14 26 -1 c15 0 29 7 33 15 7 18 -2 18 -34 0z"/>
<path d="M4870 2675 c-29 -11 -32 -14 -17 -20 20 -8 67 9 67 25 0 12 -6 12
-50 -5z"/>
<path d="M5008 2673 c7 -3 16 -2 19 1 4 3 -2 6 -13 5 -11 0 -14 -3 -6 -6z"/>
<path d="M4978 2633 c7 -3 16 -2 19 1 4 3 -2 6 -13 5 -11 0 -14 -3 -6 -6z"/>
<path d="M4695 2620 c3 -5 12 -7 20 -3 21 7 19 13 -6 13 -11 0 -18 -4 -14 -10z"/>
<path d="M3810 2260 c0 -5 5 -10 11 -10 5 0 7 5 4 10 -3 6 -8 10 -11 10 -2 0
-4 -4 -4 -10z"/>
<path d="M5675 2000 c-3 -5 -1 -10 4 -10 6 0 11 5 11 10 0 6 -2 10 -4 10 -3 0
-8 -4 -11 -10z"/>
<path d="M5576 1961 c-4 -5 3 -7 14 -4 23 6 26 13 6 13 -8 0 -17 -4 -20 -9z"/>
<path d="M5415 1905 c-25 -12 -26 -14 -5 -9 28 7 60 23 45 23 -5 0 -23 -6 -40
-14z"/>
<path d="M5270 1860 c-9 -6 -10 -10 -3 -10 6 0 15 5 18 10 8 12 4 12 -15 0z"/>
<path d="M5155 1830 c-16 -7 -17 -9 -3 -9 9 -1 20 4 23 9 7 11 7 11 -20 0z"/>
<path d="M5050 1800 c-9 -6 -10 -10 -3 -10 6 0 15 5 18 10 8 12 4 12 -15 0z"/>
<path d="M4960 1780 c-9 -6 -10 -10 -3 -10 6 0 15 5 18 10 8 12 4 12 -15 0z"/>
<path d="M4915 1770 c-16 -7 -17 -9 -3 -9 9 -1 20 4 23 9 7 11 7 11 -20 0z"/>
<path d="M4770 1740 c-9 -6 -10 -10 -3 -10 6 0 15 5 18 10 8 12 4 12 -15 0z"/>
<path d="M4715 1730 c-16 -7 -17 -9 -3 -9 9 -1 20 4 23 9 7 11 7 11 -20 0z"/>
<path d="M4655 1720 c-16 -7 -17 -9 -3 -9 9 -1 20 4 23 9 7 11 7 11 -20 0z"/>
<path d="M4518 1693 c7 -3 16 -2 19 1 4 3 -2 6 -13 5 -11 0 -14 -3 -6 -6z"/>
<path d="M4438 1683 c6 -2 18 -2 25 0 6 3 1 5 -13 5 -14 0 -19 -2 -12 -5z"/>
<path d="M4343 1673 c9 -2 23 -2 30 0 6 3 -1 5 -18 5 -16 0 -22 -2 -12 -5z"/>
<path d="M4233 1663 c9 -2 25 -2 35 0 9 3 1 5 -18 5 -19 0 -27 -2 -17 -5z"/>
<path d="M5865 1170 c-316 -178 -859 -342 -1230 -370 -108 -8 -111 -7 -171 20
-34 15 -76 31 -93 35 -17 4 -31 11 -31 16 0 5 -44 9 -97 9 -126 0 -113 -17 23
-29 104 -10 197 -38 236 -72 19 -17 19 -20 5 -15 -48 16 -69 17 -94 9 -16 -5
-39 -7 -53 -3 -14 4 -30 3 -36 -2 -6 -4 -75 -8 -153 -9 -79 0 -154 -5 -168
-10 -55 -21 -39 5 45 72 7 6 11 14 8 17 -9 8 -76 -31 -76 -45 0 -19 -36 -34
-83 -33 -23 0 -55 -2 -72 -5 -29 -6 -29 -6 -11 9 17 14 17 16 3 16 -9 0 -27
-5 -40 -11 -24 -11 -122 -5 -346 22 -92 11 -181 6 -181 -10 0 -13 32 -19 225
-43 154 -18 235 -22 555 -22 206 -1 384 3 395 8 11 5 36 10 55 11 312 20 700
104 1019 221 120 44 398 178 429 206 21 21 30 48 15 48 -5 0 -39 -18 -78 -40z"/>
<path d="M3634 915 c-17 -13 -16 -14 15 -5 41 11 51 20 25 20 -11 0 -29 -7
-40 -15z"/>
<path d="M3790 870 c0 -5 17 -10 38 -9 33 1 34 2 12 9 -36 11 -50 11 -50 0z"/>
<path d="M12930 5083 c-551 -24 -1039 -89 -1493 -199 -174 -43 -187 -47 -181
-66 5 -18 3 -19 -23 -14 -402 82 -1127 39 -1455 -86 -91 -34 -87 -19 -63 -218
18 -156 51 -541 64 -765 46 -736 44 -1845 -5 -2615 -8 -129 -17 -289 -21 -356
l-6 -121 84 -16 c95 -19 311 -50 474 -69 65 -8 229 -13 400 -13 255 0 309 3
445 24 85 13 164 27 176 31 19 8 23 25 42 192 85 722 128 1525 120 2238 l-3
325 60 11 c33 5 75 16 94 22 19 7 34 12 35 12 1 0 1 -235 1 -523 1 -508 7
-681 41 -1077 40 -478 103 -893 186 -1232 l40 -166 62 -11 c183 -32 235 -35
506 -35 210 0 324 4 435 17 216 26 514 83 533 102 3 3 -6 56 -21 118 -168 693
-267 1672 -267 2653 l0 321 58 6 c63 6 808 -8 832 -16 8 -3 43 -8 78 -12 l63
-6 23 53 c74 168 138 436 158 660 25 289 -41 586 -165 749 l-36 46 -148 12
c-332 27 -824 37 -1123 24z m1003 -213 c134 -12 207 -33 92 -26 -38 2 -206 10
-373 17 -708 28 -1455 -36 -2053 -177 -197 -46 -213 -49 -205 -36 8 13 247 71
461 111 355 67 708 105 1160 125 149 7 799 -4 918 -14z m28 -39 c48 -5 97 -14
109 -21 20 -11 21 -14 8 -27 -13 -12 -35 -13 -158 -3 -164 14 -761 18 -1020 8
-437 -17 -973 -91 -1342 -184 -113 -28 -131 -29 -148 -9 -17 21 20 35 195 75
381 87 791 143 1240 170 175 10 1000 4 1116 -9z m-2946 -202 c50 -6 95 -15
100 -20 7 -7 -16 -8 -70 -2 -44 4 -206 8 -360 8 -290 0 -431 -11 -609 -46 -54
-11 -101 -18 -103 -15 -28 28 364 82 637 89 136 3 301 -3 405 -14z m-70 -29
c112 -10 175 -24 175 -39 0 -13 -42 -32 -58 -27 -51 16 -344 25 -537 15 -298
-14 -297 -14 -250 -65 14 -15 25 -31 25 -35 0 -5 10 -17 22 -29 26 -24 12 -27
-20 -4 -12 8 -20 20 -17 25 4 5 -1 9 -9 9 -9 0 -16 6 -16 14 0 8 -9 18 -20 21
-11 3 -20 10 -20 15 0 18 -34 19 -121 4 -83 -15 -93 -14 -107 0 -20 20 -15 24
49 41 184 49 644 77 904 55z m1263 -55 c-11 -9 -58 -14 -58 -6 0 10 39 20 53
13 5 -2 7 -5 5 -7z m-1833 -177 c14 -12 25 -25 25 -30 0 -15 -24 -8 -47 14
-42 39 -22 54 22 16z m85 -8 c0 -5 -4 -10 -10 -10 -5 0 -10 5 -10 10 0 6 5 10
10 10 6 0 10 -4 10 -10z m1965 -360 c-3 -5 -14 -10 -23 -9 -14 0 -13 2 3 9 27
11 27 11 20 0z m65 -110 c12 -8 11 -10 -7 -10 -12 0 -25 5 -28 10 -8 13 15 13
35 0z m1591 -87 c-1 -4 -173 -8 -384 -9 -210 0 -454 -3 -542 -6 -135 -6 -145
-5 -60 3 55 5 295 11 533 13 238 2 436 6 439 10 7 7 15 1 14 -11z m-2206 -123
c-11 -5 -99 -25 -195 -45 -96 -20 -183 -37 -192 -39 -11 -3 -18 2 -18 11 0 11
7 14 23 10 12 -3 103 11 202 33 190 40 212 44 180 30z m562 -216 c-3 -3 -12
-4 -19 -1 -8 3 -5 6 6 6 11 1 17 -2 13 -5z m440 -60 c-3 -3 -12 -4 -19 -1 -8
3 -5 6 6 6 11 1 17 -2 13 -5z m-2324 -121 c-7 -2 -19 -2 -25 0 -7 3 -2 5 12 5
14 0 19 -2 13 -5z m110 -45 c15 -7 27 -17 27 -21 0 -5 5 -5 10 -2 17 11 49 -5
43 -21 -3 -9 -9 -11 -17 -6 -6 5 -29 15 -51 22 -43 14 -77 40 -53 40 8 0 26
-6 41 -12z m132 -67 c10 -17 -9 -20 -30 -5 -18 14 -18 14 2 14 12 0 24 -4 28
-9z m95 -91 c14 -11 21 -20 17 -20 -11 0 -67 29 -67 35 0 11 27 3 50 -15z
m1795 -580 c4 -6 -7 -10 -25 -10 -18 0 -29 4 -25 10 3 6 15 10 25 10 10 0 22
-4 25 -10z m192 -6 c-3 -3 -12 -4 -19 -1 -8 3 -5 6 6 6 11 1 17 -2 13 -5z m8
-65 c5 -7 -5 -8 -32 -3 -51 9 -54 14 -10 14 20 0 39 -5 42 -11z m-315 -49 c0
-5 -2 -10 -4 -10 -3 0 -8 5 -11 10 -3 6 -1 10 4 10 6 0 11 -4 11 -10z m195
-61 c5 -5 -6 -4 -25 2 -45 15 -54 24 -15 15 17 -4 34 -12 40 -17z m95 -19 c11
-7 4 -10 -25 -9 -31 0 -36 2 -20 9 26 11 28 11 45 0z m-350 -8 c0 -15 -11 -21
-27 -15 -12 5 -12 7 -1 14 17 11 28 11 28 1z m150 -2 c8 -5 12 -11 9 -14 -3
-3 -14 1 -25 9 -21 16 -8 20 16 5z m-10 -56 c0 -2 -7 -4 -15 -4 -8 0 -15 4
-15 10 0 5 7 7 15 4 8 -4 15 -8 15 -10z m64 -133 c4 -5 -3 -7 -14 -4 -23 6
-26 13 -6 13 8 0 17 -4 20 -9z m-174 -39 c0 -14 -11 -21 -26 -15 -8 3 -11 9
-8 14 7 11 34 12 34 1z m165 -12 c3 -5 1 -10 -4 -10 -6 0 -11 5 -11 10 0 6 2
10 4 10 3 0 8 -4 11 -10z m-115 -44 c0 -11 -19 -15 -25 -6 -3 5 1 10 9 10 9 0
16 -2 16 -4z m-2292 -122 c46 -13 23 -25 -73 -39 l-30 -5 30 15 c26 12 27 14
8 15 -12 0 -25 5 -28 10 -7 11 56 14 93 4z m-112 -16 c4 -7 3 -8 -5 -4 -6 4
-25 0 -43 -8 -39 -20 -48 -20 -48 -2 0 22 83 35 96 14z m99 -58 c3 -5 -1 -10
-9 -10 -9 0 -16 5 -16 10 0 6 4 10 9 10 6 0 13 -4 16 -10z m371 -14 c28 -13
55 -29 59 -36 4 -6 -8 -4 -26 6 -19 10 -49 20 -68 23 -19 3 -36 12 -39 19 -6
18 17 15 74 -12z m2304 9 c0 -27 -3 -30 -22 -27 -11 2 -18 -3 -18 -12 0 -10
-9 -16 -25 -16 -31 0 -24 18 18 47 39 26 47 27 47 8z m47 -7 c-3 -8 -6 -5 -6
6 -1 11 2 17 5 13 3 -3 4 -12 1 -19z m-2763 -3 c-4 -8 -18 -15 -33 -15 l-26 1
30 14 c17 7 31 14 32 14 1 1 0 -6 -3 -14z m-104 -5 c0 -5 -7 -10 -16 -10 -8 0
-12 5 -9 10 3 6 10 10 16 10 5 0 9 -4 9 -10z m2615 -30 c3 -5 -1 -10 -9 -10
-8 0 -18 5 -21 10 -3 6 1 10 9 10 8 0 18 -4 21 -10z m-2505 -20 c0 -5 -4 -10
-9 -10 -6 0 -13 5 -16 10 -3 6 1 10 9 10 9 0 16 -4 16 -10z m2616 -6 c4 -13
-91 -74 -115 -74 -10 0 -21 -7 -25 -15 -3 -8 -12 -15 -21 -15 -20 0 19 36 90
85 49 33 66 38 71 19z m-2386 -4 c0 -5 -2 -10 -4 -10 -3 0 -8 5 -11 10 -3 6
-1 10 4 10 6 0 11 -4 11 -10z m-330 -10 c0 -5 -8 -10 -17 -10 -15 0 -16 2 -3
10 19 12 20 12 20 0z m175 0 c8 -13 -5 -13 -25 0 -13 8 -13 10 2 10 9 0 20 -4
23 -10z m-125 -15 c-7 -8 -17 -12 -22 -9 -6 4 -5 10 3 15 22 14 33 10 19 -6z
m236 0 c-11 -8 -25 -15 -30 -15 -6 1 0 7 14 15 32 19 40 18 16 0z m-141 -45
c4 -6 -7 -10 -25 -10 -18 0 -29 4 -25 10 3 6 15 10 25 10 10 0 22 -4 25 -10z
m50 -10 c3 -5 1 -10 -4 -10 -6 0 -11 5 -11 10 0 6 2 10 4 10 3 0 8 -4 11 -10z
m128 3 c-7 -2 -19 -2 -25 0 -7 3 -2 5 12 5 14 0 19 -2 13 -5z m-350 -50 c-7
-2 -19 -2 -25 0 -7 3 -2 5 12 5 14 0 19 -2 13 -5z m524 1 c-3 -3 -12 -4 -19
-1 -8 3 -5 6 6 6 11 1 17 -2 13 -5z m-350 -40 c-3 -3 -12 -4 -19 -1 -8 3 -5 6
6 6 11 1 17 -2 13 -5z m530 -20 c-3 -3 -12 -4 -19 -1 -8 3 -5 6 6 6 11 1 17
-2 13 -5z m-206 -30 c11 -14 9 -15 -23 -9 -22 4 -38 3 -42 -4 -8 -13 -26 -15
-26 -3 0 9 39 29 61 31 9 0 22 -6 30 -15z m-324 0 c-3 -3 -12 -4 -19 -1 -8 3
-5 6 6 6 11 1 17 -2 13 -5z m-126 -31 c12 -15 12 -16 -4 -10 -10 4 -23 7 -28
7 -5 0 -9 5 -9 10 0 16 26 12 41 -7z m334 7 c3 -6 -1 -7 -9 -4 -18 7 -21 14
-7 14 6 0 13 -4 16 -10z m-260 -40 c3 -5 1 -10 -4 -10 -6 0 -11 5 -11 10 0 6
2 10 4 10 3 0 8 -4 11 -10z m105 -6 c0 -2 -7 -4 -15 -4 -8 0 -15 4 -15 10 0 5
7 7 15 4 8 -4 15 -8 15 -10z m-57 -11 c4 -3 -5 -12 -20 -20 -30 -16 -41 -10
-23 12 13 16 32 20 43 8z m252 -13 c8 -13 -15 -13 -35 0 -12 8 -11 10 7 10 12
0 25 -4 28 -10z m-413 -32 c-15 -15 -26 -4 -18 18 5 13 9 15 18 6 9 -9 9 -15
0 -24z m858 22 c0 -5 -2 -10 -4 -10 -3 0 -8 5 -11 10 -3 6 -1 10 4 10 6 0 11
-4 11 -10z m-355 -40 c3 -5 -3 -10 -15 -10 -12 0 -18 5 -15 10 3 6 10 10 15
10 5 0 12 -4 15 -10z m-535 -9 c0 -6 -4 -13 -10 -16 -5 -3 -10 1 -10 9 0 9 5
16 10 16 6 0 10 -4 10 -9z m710 -1 c-8 -5 -24 -9 -35 -9 -16 1 -16 2 5 9 35
11 48 11 30 0z m-485 -36 c30 -20 55 -40 55 -43 0 -4 16 -13 35 -20 38 -13 44
-25 19 -35 -17 -6 -54 9 -54 23 0 5 -9 11 -21 14 -12 3 -18 10 -14 16 3 6 -1
11 -9 11 -9 0 -16 3 -16 8 0 4 -14 15 -30 24 -17 9 -30 22 -30 28 0 15 6 13
65 -26z m-298 -16 c-3 -7 -5 -2 -5 12 0 14 2 19 5 13 2 -7 2 -19 0 -25z m908
-36 c-3 -3 -11 0 -18 7 -9 10 -8 11 6 5 10 -3 15 -9 12 -12z m8 -77 c-10 -7
-22 -10 -28 -7 -5 4 -2 8 8 10 9 2 17 8 17 13 0 6 5 7 11 4 6 -5 4 -12 -8 -20z
m-471 -7 c-12 -12 -35 -1 -27 12 3 5 13 6 21 3 10 -4 12 -9 6 -15z m32 -17 c3
-5 -3 -11 -14 -14 -20 -5 -26 3 -13 16 9 10 21 9 27 -2z m36 -43 c0 -13 -23
-5 -28 10 -2 7 2 10 12 6 9 -3 16 -11 16 -16z m140 -38 c0 -5 -7 -10 -15 -10
-8 0 -15 5 -15 10 0 6 7 10 15 10 8 0 15 -4 15 -10z m243 -7 c-7 -2 -19 -2
-25 0 -7 3 -2 5 12 5 14 0 19 -2 13 -5z m-201 -20 c9 -10 24 -24 32 -31 25
-20 19 -33 -9 -20 -14 6 -25 15 -25 20 0 4 -6 8 -14 8 -15 0 -28 24 -19 34 10
10 17 7 35 -11z m376 -91 c5 -17 -13 -15 -27 2 -10 12 -9 14 5 12 10 -2 20 -8
22 -14z m-274 -10 c3 -5 -1 -9 -9 -9 -8 0 -12 4 -9 9 3 4 7 8 9 8 2 0 6 -4 9
-8z m-209 -13 c10 -15 -1 -23 -20 -15 -9 3 -13 10 -10 16 8 13 22 13 30 -1z
m430 -15 c29 -24 29 -25 5 -18 -29 7 -50 23 -50 35 0 15 14 10 45 -17z m1624
-55 c-8 -5 -21 -9 -30 -9 -9 0 -28 -9 -42 -20 -14 -11 -28 -20 -32 -20 -12 0
52 50 76 59 28 10 48 3 28 -10z m-1692 -15 c-3 -3 -12 -4 -19 -1 -8 3 -5 6 6
6 11 1 17 -2 13 -5z m1853 -24 c20 -6 15 -8 -25 -9 -36 0 -46 2 -35 9 17 11
25 11 60 0z m257 -6 c-3 -3 -12 -4 -19 -1 -8 3 -5 6 6 6 11 1 17 -2 13 -5z
m-3032 -18 c59 -17 374 -38 619 -42 154 -2 282 -7 285 -11 11 -11 -572 6 -724
21 -196 20 -235 26 -235 38 0 5 8 7 18 4 9 -2 26 -7 37 -10z m1075 -25 c0 -11
-102 -26 -122 -18 -7 3 3 6 22 7 19 1 46 6 60 10 35 11 40 11 40 1z m1894 -23
c-56 -44 -73 -61 -69 -68 6 -9 -25 -23 -33 -15 -10 10 92 105 111 105 17 0 15
-4 -9 -22z m-574 -72 c0 -3 -4 -8 -10 -11 -5 -3 -10 -1 -10 4 0 6 5 11 10 11
6 0 10 -2 10 -4z m715 -65 c-6 -6 -35 -12 -65 -15 l-55 -6 50 14 c63 17 82 19
70 7z m-817 -41 c84 -5 185 -8 225 -5 62 3 67 2 37 -7 -43 -13 -443 6 -468 23
-13 8 -9 9 18 4 19 -3 104 -10 188 -15z m642 10 c-30 -4 -120 -10 -200 -13
l-145 -6 130 9 c72 5 141 11 155 13 14 2 45 4 70 4 44 0 44 0 -10 -7z"/>
</g>
</svg>
